<svg xmlns="http://www.w3.org/2000/svg" version="1.1" xmlns:xlink="http://www.w3.org/1999/xlink" xmlns:svgjs="http://svgjs.dev/svgjs" width="2000" height="1500" viewBox="0 0 2000 1500"><rect width="2000" height="1500" fill="#0c1d36"></rect><g transform="matrix(0.75,0,0,0.75,251.0291223779907,230.29615384615386)"><svg viewBox="0 0 356 247" data-background-color="#0c1d36" preserveAspectRatio="xMidYMid meet" height="1387" width="2000" xmlns="http://www.w3.org/2000/svg" xmlns:xlink="http://www.w3.org/1999/xlink"><g id="tight-bounds" transform="matrix(1,0,0,1,-0.24424504437644146,-0.09999999999999432)"><svg viewBox="0 0 356.4884900887529 247.2" height="247.2" width="356.4884900887529"><g><svg viewBox="0 0 356.4884900887529 247.2" height="247.2" width="356.4884900887529"><g><svg viewBox="0 0 395.52 274.26564031747034" height="247.2" width="356.4884900887529"><g transform="matrix(1,0,0,1,0,159.75243873644268)"><svg viewBox="0 0 395.52 114.51320158102766" height="114.51320158102766" width="395.52"><g id="textblocktransform"><svg viewBox="0 0 395.52 114.51320158102766" height="114.51320158102766" width="395.52" id="textblock"><g><svg viewBox="0 0 395.52 114.51320158102766" height="114.51320158102766" width="395.52"><g transform="matrix(1,0,0,1,0,0)"><svg width="395.52" viewBox="0.8 -33.75 151.79 43.949999999999996" height="114.51320158102766" data-palette-color="#f9cc0b"><path d="M25.45-3.85Q25.7-3.75 26.25-3.6 26.8-3.45 27.05-3.3 27.3-3.15 27.3-2.85L27.3-2.85Q27.35-1.65 26.43-0.88 25.5-0.1 24.25-0.1L24.25-0.1Q22.3-0.1 21.2-1.15 20.1-2.2 19.6-4.35L19.6-4.35Q19.4-5.2 19.4-6.7L19.4-6.7Q19.4-7.55 19.5-9.45L19.5-9.45Q19.6-11.45 19.6-12.65L19.6-12.65Q19.6-14.4 18.63-15.73 17.65-17.05 15.9-17.05L15.9-17.05Q14.85-17.05 13.7-16.43 12.55-15.8 12.1-14.9L12.1-14.9Q11.35-13.45 11.05-11.75L11.05-11.75Q10.5-8.75 10.5-5.5L10.5-5.5Q10.5-3.95 10.55-3.1L10.55-3.1Q10.55-2.9 10.58-2.33 10.6-1.75 10.48-1.28 10.35-0.8 10.05-0.4L10.05-0.4Q9.8-0.15 9.28 0.03 8.75 0.2 8.3 0.2L8.3 0.2Q7.6 0.2 6.55-0.4 5.5-1 5.35-1.75L5.35-1.75 5.3-2.6Q5.3-3.05 5.4-3.65L5.4-3.65Q6-7.15 6-9.75L6-9.75Q6-10.9 5.95-11.55L5.95-11.55 5.9-13.9Q5.9-15.1 5.3-16.23 4.7-17.35 3.9-17.35L3.9-17.35Q3.65-17.35 3.2-17.18 2.75-17 2.45-17L2.45-17Q1.95-17 1.38-17.5 0.8-18 0.8-18.55L0.8-18.55Q0.8-19.6 1.5-20.25L1.5-20.25Q2.25-20.85 2.98-21.2 3.7-21.55 4.65-21.55L4.65-21.55Q5.45-21.55 5.95-21.4 6.45-21.25 7.3-20.75L7.3-20.75Q7.75-20.5 8.35-19.65 8.95-18.8 9.35-17.25L9.35-17.25Q10.65-19.65 12.58-20.63 14.5-21.6 17.5-21.6L17.5-21.6Q18.65-21.6 19.98-20.85 21.3-20.1 22.25-19.1L22.25-19.1Q23.15-18 23.75-16.38 24.35-14.75 24.35-13.45L24.35-13.45Q24.35-12.7 24.25-11L24.25-11Q24.1-9.65 24.1-8.15L24.1-8.15Q24.1-4.65 25.45-3.85L25.45-3.85ZM53.65-2.4Q53.65-1.3 52.47-0.55 51.3 0.2 50.3 0.2L50.3 0.2Q48.4 0.2 47.27-0.28 46.15-0.75 45.2-2.05L45.2-2.05Q43.9-0.9 41.65-0.33 39.4 0.25 37.5 0.25L37.5 0.25Q34.4 0.25 32.4-1.43 30.4-3.1 30.4-6.35L30.4-6.35Q30.4-7.75 31.15-8.93 31.9-10.1 33.2-11L33.2-11Q34.65-11.95 36.5-12.48 38.35-13 40.35-13L40.35-13Q41.4-13 42.85-12.6 44.3-12.2 45.1-11.75L45.1-11.75 45.1-12.55Q45.1-15.25 43.8-16.28 42.5-17.3 39.6-17.3L39.6-17.3Q38.75-17.3 37.92-16.95 37.1-16.6 36.05-16L36.05-16Q34.65-15.25 33.4-15.25L33.4-15.25Q32.95-15.25 32.55-15.88 32.15-16.5 32.15-17L32.15-17Q32.15-18.45 33.52-19.5 34.9-20.55 36.8-21.08 38.7-21.6 40.2-21.6L40.2-21.6Q41.7-21.6 43.65-21.03 45.6-20.45 46.85-19.45L46.85-19.45Q48.35-18.15 49.17-16.43 50-14.7 50-12.65L50-12.65Q50-12 49.9-10.7L49.9-10.7Q49.8-9.3 49.8-8.3L49.8-8.3Q49.8-7.85 49.7-6.95L49.7-6.95Q49.6-5.85 49.6-5.2L49.6-5.2Q49.6-4.6 50.05-4.17 50.5-3.75 51.1-3.75L51.1-3.75 52.5-3.8Q53.05-3.8 53.35-3.4 53.65-3 53.65-2.4L53.65-2.4ZM37.55-3.7Q39.7-3.7 41.15-4.15 42.6-4.6 44.65-5.8L44.65-5.8Q44.85-6.65 44.9-8.05L44.9-8.05Q42.15-9.35 40.35-9.35L40.35-9.35Q38.3-9.35 36.7-8.6 35.1-7.85 35.1-5.95L35.1-5.95Q35.1-5 35.9-4.35 36.7-3.7 37.55-3.7L37.55-3.7ZM62.4 10.2Q60.5 10.2 59.22 9.58 57.95 8.95 57.32 8.08 56.7 7.2 56.7 6.55L56.7 6.55Q56.7 5.7 57.3 5.23 57.9 4.75 58.75 4.75L58.75 4.75Q59.25 4.75 59.7 5.05 60.15 5.35 60.2 5.4L60.2 5.4Q60.55 5.65 60.9 5.83 61.25 6 61.65 6L61.65 6Q62.75 6 63.45 4.55 64.15 3.1 64.84-0.15L64.84-0.15Q62.59-3.45 61.09-6.75L61.09-6.75 59.95-9.4Q59.7-10 58.57-12.53 57.45-15.05 56.34-17L56.34-17Q55.65-18.4 55.65-18.9L55.65-18.9Q55.65-20.15 56.52-20.75 57.4-21.35 58.55-21.35L58.55-21.35Q59.34-21.35 59.77-21.03 60.2-20.7 60.75-19.85L60.75-19.85Q62.2-17.45 63.9-12.65L63.9-12.65Q64.9-9.9 65.5-8.47 66.09-7.05 66.95-5.6L66.95-5.6Q67.8-7.55 69.09-12.25L69.09-12.25Q69.9-14.95 70.42-16.57 70.95-18.2 71.59-19.55L71.59-19.55Q72.05-20.45 72.72-21 73.4-21.55 74.25-21.55L74.25-21.55Q75.09-21.55 76.07-20.93 77.05-20.3 77.05-19.45L77.05-19.45Q77.05-18.95 76.7-18.25L76.7-18.25Q74.75-13.75 73.27-9.78 71.8-5.8 70.45-1.05L70.45-1.05Q69.65 1.6 68.77 4 67.9 6.4 67.55 6.95L67.55 6.95Q66.55 8.35 65.3 9.28 64.05 10.2 62.4 10.2L62.4 10.2ZM103.14-2.4Q103.14-1.3 101.97-0.55 100.79 0.2 99.79 0.2L99.79 0.2Q97.89 0.2 96.77-0.28 95.64-0.75 94.69-2.05L94.69-2.05Q93.39-0.9 91.14-0.33 88.89 0.25 86.99 0.25L86.99 0.25Q83.89 0.25 81.89-1.43 79.89-3.1 79.89-6.35L79.89-6.35Q79.89-7.75 80.64-8.93 81.39-10.1 82.69-11L82.69-11Q84.14-11.95 85.99-12.48 87.84-13 89.84-13L89.84-13Q90.89-13 92.34-12.6 93.79-12.2 94.59-11.75L94.59-11.75 94.59-12.55Q94.59-15.25 93.29-16.28 91.99-17.3 89.09-17.3L89.09-17.3Q88.24-17.3 87.42-16.95 86.59-16.6 85.54-16L85.54-16Q84.14-15.25 82.89-15.25L82.89-15.25Q82.44-15.25 82.04-15.88 81.64-16.5 81.64-17L81.64-17Q81.64-18.45 83.02-19.5 84.39-20.55 86.29-21.08 88.19-21.6 89.69-21.6L89.69-21.6Q91.19-21.6 93.14-21.03 95.09-20.45 96.34-19.45L96.34-19.45Q97.84-18.15 98.67-16.43 99.49-14.7 99.49-12.65L99.49-12.65Q99.49-12 99.39-10.7L99.39-10.7Q99.29-9.3 99.29-8.3L99.29-8.3Q99.29-7.85 99.19-6.95L99.19-6.95Q99.09-5.85 99.09-5.2L99.09-5.2Q99.09-4.6 99.54-4.17 99.99-3.75 100.59-3.75L100.59-3.75 101.99-3.8Q102.54-3.8 102.84-3.4 103.14-3 103.14-2.4L103.14-2.4ZM87.04-3.7Q89.19-3.7 90.64-4.15 92.09-4.6 94.14-5.8L94.14-5.8Q94.34-6.65 94.39-8.05L94.39-8.05Q91.64-9.35 89.84-9.35L89.84-9.35Q87.79-9.35 86.19-8.6 84.59-7.85 84.59-5.95L84.59-5.95Q84.59-5 85.39-4.35 86.19-3.7 87.04-3.7L87.04-3.7ZM120.44-11.25Q120.84-11 122.02-10.33 123.19-9.65 123.59-8.75 123.99-7.85 123.99-6.25L123.99-6.25Q123.99-4.45 122.94-3.08 121.89-1.7 120.24-0.95L120.24-0.95Q119.04-0.4 117.32-0.1 115.59 0.2 114.59 0.2L114.59 0.2Q113.59 0.2 112.02-0.1 110.44-0.4 109.84-0.65L109.84-0.65Q108.29-1.55 107.17-2.85 106.04-4.15 106.04-5.5L106.04-5.5Q106.04-6.5 106.69-7.08 107.34-7.65 108.39-7.65L108.39-7.65Q108.89-7.65 109.44-7.28 109.99-6.9 110.19-6.5L110.19-6.5Q110.74-5.2 112.04-4.55 113.34-3.9 114.69-3.9L114.69-3.9Q116.44-3.9 117.94-4.48 119.44-5.05 119.44-6.05L119.44-6.05Q119.44-6.5 119.22-6.78 118.99-7.05 118.59-7.35L118.59-7.35Q117.89-7.85 116.49-8.18 115.09-8.5 114.69-8.6L114.69-8.6Q112.64-9.05 110.69-9.95L110.69-9.95Q108.74-10.9 107.59-12.2 106.44-13.5 106.44-15.55L106.44-15.55Q106.44-16.9 107.44-18.38 108.44-19.85 109.69-20.45L109.69-20.45Q110.59-20.8 112.72-21.2 114.84-21.6 115.59-21.6L115.59-21.6Q116.74-21.6 118.09-21.38 119.44-21.15 120.14-20.65L120.14-20.65Q121.49-19.85 122.34-18.98 123.19-18.1 123.19-17L123.19-17Q123.19-16.45 122.94-15.83 122.69-15.2 122.34-15.05L122.34-15.05Q121.59-14.7 120.59-14.7L120.59-14.7Q120.14-14.7 119.87-14.95 119.59-15.2 119.14-15.75L119.14-15.75Q118.59-16.6 118.09-16.75L118.09-16.75Q117.49-16.9 116.34-17.13 115.19-17.35 114.79-17.35L114.79-17.35Q113.64-17.35 112.42-16.7 111.19-16.05 111.19-15.2L111.19-15.2Q111.19-14.75 111.57-14.5 111.94-14.25 112.37-14.05 112.79-13.85 112.94-13.8L112.94-13.8Q113.99-13.3 115.27-12.95 116.54-12.6 116.84-12.5L116.84-12.5Q119.54-11.85 120.44-11.25L120.44-11.25ZM134.74-31.7Q134.74-30.4 134.69-28.68 134.64-26.95 134.59-26.05L134.59-26.05Q134.44-23.5 134.44-20.95L134.44-20.95Q134.44-19.05 134.59-17L134.59-17Q136.14-19.25 137.94-20.3 139.74-21.35 142.29-21.35L142.29-21.35Q144.14-21.35 145.74-19.7 147.34-18.05 147.79-15.85L147.79-15.85Q147.94-13.9 147.94-11.1L147.94-11.1Q147.94-9.3 148.14-6.4L148.14-6.4Q148.24-5.3 148.71-4.35 149.19-3.4 150.09-3.4L150.09-3.4Q150.54-3.4 150.81-3.45 151.09-3.5 151.34-3.5L151.34-3.5Q152.04-3.5 152.31-3.15 152.59-2.8 152.59-2.15L152.59-2.15Q152.59-0.95 151.39-0.35 150.19 0.25 149.19 0.25L149.19 0.25Q145.59 0.25 144.24-2.75L144.24-2.75Q143.49-4.45 143.29-7.18 143.09-9.9 143.09-13.55L143.09-13.55Q143.09-17.15 140.64-17.15L140.64-17.15Q139.29-17.15 137.91-15.73 136.54-14.3 135.64-11.98 134.74-9.65 134.74-7.15L134.74-7.15 134.79-1.95Q134.79-0.85 133.94-0.33 133.09 0.2 132.34 0.2L132.34 0.2Q131.24 0.2 130.34-0.48 129.44-1.15 129.44-2L129.44-2Q129.79-5.75 129.79-14.55L129.79-14.55Q129.79-16.15 129.54-26.4L129.54-26.4 129.39-31Q129.39-32.1 130.39-32.93 131.39-33.75 132.64-33.75L132.64-33.75Q133.74-33.75 134.24-33.25 134.74-32.75 134.74-31.7L134.74-31.7Z" opacity="1" transform="matrix(1,0,0,1,0,0)" fill="#f9cc0b" class="wordmark-text-0" data-fill-palette-color="primary" id="text-0"></path></svg></g></svg></g></svg></g></svg></g><g transform="matrix(1,0,0,1,75.54432,0)"><svg viewBox="0 0 244.43135999999998 132.71862016" height="132.71862016" width="244.43135999999998"><g><svg version="1.1" xmlns="http://www.w3.org/2000/svg" xmlns:xlink="http://www.w3.org/1999/xlink" x="8" y="0" viewBox="0 0 100 58.1" enable-background="new 0 0 100 58.1" xml:space="preserve" width="228.43135999999998" height="132.71862016" class="icon-icon-0" data-fill-palette-color="accent" id="icon-0"><path d="M69.987 1.618C69.919 0.714 69.172 0 68.25 0H1.75C0.828 0 0.081 0.714 0.013 1.618L0 46.55c0 0.967 0.783 1.75 1.75 1.75h66.5c0.967 0 1.75-0.783 1.75-1.75L69.987 1.618zM3 3.1h64v36.8H3V3.1z" fill="#f9f9f9" data-fill-palette-color="accent"></path><path d="M46.2 56.7c-2.8-0.7-3.5-2.801-3.5-5.601H27.3c0 2.8-0.7 4.9-3.5 5.601-0.679 0.169-0.7 1.399 0 1.399H35h11.2C46.9 58.1 46.879 56.869 46.2 56.7z" fill="#f9f9f9" data-fill-palette-color="accent"></path><path d="M97 0.1h-3H83h-3c-1.517 0-3 1.718-3 3v2 1 46 1 2c0 1.282 1.483 3 3 3h3 11 3c1.517 0 3-1.718 3-3v-2-1-46-1-2C100 1.817 98.517 0.1 97 0.1zM98.001 55.083C97.961 55.394 97.365 56.1 97 56.1h-3H83h-3c-0.365 0-0.961-0.706-1.001-1.017L79 53.1h19L98.001 55.083zM79 5.1l-0.001-1.983C79.039 2.806 79.635 2.1 80 2.1h3 11 3c0.365 0 0.961 0.706 1.001 1.017L98 5.1H79z" fill="#f9f9f9" data-fill-palette-color="accent"></path></svg></g></svg></g><g><rect width="56.02856504437645" height="10.326918696201107" y="121.39170146379888" x="319.97568" fill="#f9f9f9" data-fill-palette-color="accent"></rect><rect width="56.02856504437645" height="10.326918696201107" y="121.39170146379888" x="19.51575495562355" fill="#f9f9f9" data-fill-palette-color="accent"></rect><rect width="56.02856504437645" height="10.326918696201107" y="100.73786407139667" x="319.97568" fill="#f9f9f9" data-fill-palette-color="accent"></rect><rect width="56.02856504437645" height="10.326918696201107" y="100.73786407139667" x="19.51575495562355" fill="#f9f9f9" data-fill-palette-color="accent"></rect></g></svg></g></svg></g><defs></defs></svg><rect width="356.4884900887529" height="247.2" fill="none" stroke="none" visibility="hidden"></rect></g></svg></g></svg>